<mxfile host="app.diagrams.net" agent="Mozilla/5.0 (Windows NT 10.0; Win64; x64) AppleWebKit/537.36 (KHTML, like Gecko) Chrome/131.0.0.0 Safari/537.36" version="24.8.8">
  <diagram name="Page-1" id="_VkZlfbcH69sGK29IT94">
    <mxGraphModel dx="2501" dy="752" grid="1" gridSize="10" guides="1" tooltips="1" connect="1" arrows="1" fold="1" page="1" pageScale="1" pageWidth="827" pageHeight="1169" math="0" shadow="0">
      <root>
        <mxCell id="0" />
        <mxCell id="1" parent="0" />
        <mxCell id="QJOm7oPZ2gpyJdL4HzTK-39" value="Seguridad" style="swimlane;startSize=20;html=1;" vertex="1" parent="1">
          <mxGeometry x="270" y="160" width="250" height="580" as="geometry" />
        </mxCell>
        <mxCell id="QJOm7oPZ2gpyJdL4HzTK-2" value="Actor" style="swimlane;startSize=20;html=1;" vertex="1" parent="1">
          <mxGeometry x="-330" y="160" width="180" height="580" as="geometry" />
        </mxCell>
        <mxCell id="QJOm7oPZ2gpyJdL4HzTK-5" value="&lt;div&gt;&lt;br&gt;&lt;/div&gt;&lt;div&gt;&lt;br&gt;&lt;/div&gt;&lt;div&gt;&lt;br&gt;&lt;/div&gt;&lt;div&gt;&lt;br&gt;&lt;/div&gt;&lt;div&gt;&lt;br&gt;&lt;/div&gt;&lt;div&gt;&lt;br&gt;&lt;/div&gt;&lt;div&gt;Cliente Interno&lt;/div&gt;" style="shape=actor;whiteSpace=wrap;html=1;" vertex="1" parent="QJOm7oPZ2gpyJdL4HzTK-2">
          <mxGeometry x="40" y="60" width="40" height="60" as="geometry" />
        </mxCell>
        <mxCell id="QJOm7oPZ2gpyJdL4HzTK-7" value="&lt;div&gt;&lt;br&gt;&lt;/div&gt;&lt;div&gt;&lt;br&gt;&lt;/div&gt;&lt;div&gt;&lt;br&gt;&lt;/div&gt;&lt;div&gt;&lt;br&gt;&lt;/div&gt;&lt;div&gt;&lt;br&gt;&lt;/div&gt;&lt;div&gt;Proveedores&lt;/div&gt;" style="shape=actor;whiteSpace=wrap;html=1;" vertex="1" parent="QJOm7oPZ2gpyJdL4HzTK-2">
          <mxGeometry x="40" y="233.7" width="40" height="60" as="geometry" />
        </mxCell>
        <mxCell id="QJOm7oPZ2gpyJdL4HzTK-8" value="&lt;div&gt;&lt;br&gt;&lt;/div&gt;&lt;div&gt;&lt;br&gt;&lt;/div&gt;&lt;div&gt;&lt;br&gt;&lt;/div&gt;&lt;div&gt;&lt;br&gt;&lt;/div&gt;&lt;div&gt;&lt;br&gt;&lt;/div&gt;&lt;div&gt;&lt;br&gt;&lt;/div&gt;&lt;div&gt;Administradores del Sistema&lt;/div&gt;" style="shape=actor;whiteSpace=wrap;html=1;" vertex="1" parent="QJOm7oPZ2gpyJdL4HzTK-2">
          <mxGeometry x="40" y="340" width="40" height="60" as="geometry" />
        </mxCell>
        <mxCell id="QJOm7oPZ2gpyJdL4HzTK-3" value="Interfaz Usuario" style="swimlane;startSize=20;html=1;" vertex="1" parent="1">
          <mxGeometry x="-150" y="160" width="170" height="580" as="geometry" />
        </mxCell>
        <mxCell id="QJOm7oPZ2gpyJdL4HzTK-9" value="" style="verticalLabelPosition=bottom;aspect=fixed;html=1;shape=mxgraph.salesforce.web;" vertex="1" parent="QJOm7oPZ2gpyJdL4HzTK-3">
          <mxGeometry x="50" y="240" width="60" height="47.400000000000006" as="geometry" />
        </mxCell>
        <mxCell id="QJOm7oPZ2gpyJdL4HzTK-10" value="" style="dashed=0;outlineConnect=0;html=1;align=center;labelPosition=center;verticalLabelPosition=bottom;verticalAlign=top;shape=mxgraph.weblogos.whatsapp;fillColor=#00E676;strokeColor=#dddddd" vertex="1" parent="QJOm7oPZ2gpyJdL4HzTK-3">
          <mxGeometry x="53" y="60" width="57" height="44.8" as="geometry" />
        </mxCell>
        <mxCell id="QJOm7oPZ2gpyJdL4HzTK-12" value="" style="html=1;verticalLabelPosition=bottom;align=center;labelBackgroundColor=#ffffff;verticalAlign=top;strokeWidth=2;strokeColor=#0080F0;shadow=0;dashed=0;shape=mxgraph.ios7.icons.smartphone;" vertex="1" parent="QJOm7oPZ2gpyJdL4HzTK-3">
          <mxGeometry x="63.5" y="425" width="29" height="50" as="geometry" />
        </mxCell>
        <mxCell id="QJOm7oPZ2gpyJdL4HzTK-47" value="Web" style="text;html=1;align=center;verticalAlign=middle;resizable=0;points=[];autosize=1;strokeColor=none;fillColor=none;" vertex="1" parent="QJOm7oPZ2gpyJdL4HzTK-3">
          <mxGeometry x="53" y="287.4" width="50" height="30" as="geometry" />
        </mxCell>
        <mxCell id="QJOm7oPZ2gpyJdL4HzTK-4" value="Plataforma Compras Y abast. SaaS" style="swimlane;startSize=20;html=1;" vertex="1" parent="1">
          <mxGeometry x="20" y="160" width="250" height="580" as="geometry" />
        </mxCell>
        <mxCell id="QJOm7oPZ2gpyJdL4HzTK-18" value="" style="rounded=1;whiteSpace=wrap;html=1;" vertex="1" parent="QJOm7oPZ2gpyJdL4HzTK-4">
          <mxGeometry x="40" y="96.2" width="180" height="335" as="geometry" />
        </mxCell>
        <mxCell id="QJOm7oPZ2gpyJdL4HzTK-19" value="" style="sketch=0;verticalLabelPosition=bottom;sketch=0;aspect=fixed;html=1;verticalAlign=top;strokeColor=none;fillColor=#000000;align=center;outlineConnect=0;pointerEvents=1;shape=mxgraph.citrix2.web_saas_apps;" vertex="1" parent="QJOm7oPZ2gpyJdL4HzTK-4">
          <mxGeometry x="50" y="100" width="50" height="38.45" as="geometry" />
        </mxCell>
        <mxCell id="QJOm7oPZ2gpyJdL4HzTK-20" value="Gestión Solicitudes" style="rounded=1;whiteSpace=wrap;html=1;" vertex="1" parent="QJOm7oPZ2gpyJdL4HzTK-4">
          <mxGeometry x="65" y="160" width="120" height="30" as="geometry" />
        </mxCell>
        <mxCell id="QJOm7oPZ2gpyJdL4HzTK-25" value="Ordenes de Compra" style="rounded=1;whiteSpace=wrap;html=1;" vertex="1" parent="QJOm7oPZ2gpyJdL4HzTK-4">
          <mxGeometry x="65" y="220" width="120" height="30" as="geometry" />
        </mxCell>
        <mxCell id="QJOm7oPZ2gpyJdL4HzTK-26" value="Catálogos" style="rounded=1;whiteSpace=wrap;html=1;" vertex="1" parent="QJOm7oPZ2gpyJdL4HzTK-4">
          <mxGeometry x="60" y="280" width="130" height="30" as="geometry" />
        </mxCell>
        <mxCell id="QJOm7oPZ2gpyJdL4HzTK-48" value="Whatsapp" style="text;html=1;align=center;verticalAlign=middle;resizable=0;points=[];autosize=1;strokeColor=none;fillColor=none;" vertex="1" parent="1">
          <mxGeometry x="-110" y="258" width="80" height="30" as="geometry" />
        </mxCell>
        <mxCell id="QJOm7oPZ2gpyJdL4HzTK-49" value="Mobile" style="text;html=1;align=center;verticalAlign=middle;resizable=0;points=[];autosize=1;strokeColor=none;fillColor=none;" vertex="1" parent="1">
          <mxGeometry x="-100" y="628" width="60" height="30" as="geometry" />
        </mxCell>
        <mxCell id="QJOm7oPZ2gpyJdL4HzTK-50" style="edgeStyle=orthogonalEdgeStyle;rounded=0;orthogonalLoop=1;jettySize=auto;html=1;entryX=0;entryY=0.485;entryDx=0;entryDy=0;entryPerimeter=0;" edge="1" parent="1" source="QJOm7oPZ2gpyJdL4HzTK-7" target="QJOm7oPZ2gpyJdL4HzTK-9">
          <mxGeometry relative="1" as="geometry" />
        </mxCell>
        <mxCell id="QJOm7oPZ2gpyJdL4HzTK-51" style="edgeStyle=orthogonalEdgeStyle;rounded=0;orthogonalLoop=1;jettySize=auto;html=1;" edge="1" parent="1" source="QJOm7oPZ2gpyJdL4HzTK-7" target="QJOm7oPZ2gpyJdL4HzTK-10">
          <mxGeometry relative="1" as="geometry">
            <Array as="points">
              <mxPoint x="-130" y="424" />
              <mxPoint x="-130" y="242" />
            </Array>
          </mxGeometry>
        </mxCell>
        <mxCell id="QJOm7oPZ2gpyJdL4HzTK-52" style="edgeStyle=orthogonalEdgeStyle;rounded=0;orthogonalLoop=1;jettySize=auto;html=1;entryX=-0.052;entryY=0.7;entryDx=0;entryDy=0;entryPerimeter=0;" edge="1" parent="1" source="QJOm7oPZ2gpyJdL4HzTK-7" target="QJOm7oPZ2gpyJdL4HzTK-12">
          <mxGeometry relative="1" as="geometry">
            <Array as="points">
              <mxPoint x="-130" y="424" />
              <mxPoint x="-130" y="620" />
            </Array>
          </mxGeometry>
        </mxCell>
        <mxCell id="QJOm7oPZ2gpyJdL4HzTK-53" style="edgeStyle=orthogonalEdgeStyle;rounded=0;orthogonalLoop=1;jettySize=auto;html=1;entryX=0;entryY=0.5;entryDx=0;entryDy=0;" edge="1" parent="1" source="QJOm7oPZ2gpyJdL4HzTK-9" target="QJOm7oPZ2gpyJdL4HzTK-18">
          <mxGeometry relative="1" as="geometry" />
        </mxCell>
      </root>
    </mxGraphModel>
  </diagram>
</mxfile>
